<mxfile host="app.diagrams.net" modified="2024-03-12T13:44:06.106Z" agent="Mozilla/5.0 (Windows NT 10.0; Win64; x64) AppleWebKit/537.36 (KHTML, like Gecko) Chrome/122.0.0.0 Safari/537.36" etag="UXCF_-YMVdLemAZlm7Oh" version="24.0.5" type="github">
  <diagram name="PÃ¡gina-1" id="ZfAC0ltmeVqG5H71sMwh">
    <mxGraphModel dx="2247" dy="671" grid="1" gridSize="10" guides="1" tooltips="1" connect="1" arrows="1" fold="1" page="1" pageScale="1" pageWidth="1000" pageHeight="1169" math="0" shadow="0">
      <root>
        <mxCell id="0" />
        <mxCell id="1" parent="0" />
        <mxCell id="Kmo-SIVVVGikCY21M4dk-20" value="Livro &quot;A&quot;" style="whiteSpace=wrap;html=1;align=center;" vertex="1" parent="1">
          <mxGeometry x="-500" y="460" width="100" height="40" as="geometry" />
        </mxCell>
        <mxCell id="Kmo-SIVVVGikCY21M4dk-128" value="Autor" style="ellipse;whiteSpace=wrap;html=1;align=center;" vertex="1" parent="1">
          <mxGeometry x="-640" y="440" width="100" height="40" as="geometry" />
        </mxCell>
        <mxCell id="Kmo-SIVVVGikCY21M4dk-129" value="Categoria" style="ellipse;whiteSpace=wrap;html=1;align=center;" vertex="1" parent="1">
          <mxGeometry x="-640" y="480" width="100" height="40" as="geometry" />
        </mxCell>
        <mxCell id="Kmo-SIVVVGikCY21M4dk-130" value="Nome" style="ellipse;whiteSpace=wrap;html=1;align=center;" vertex="1" parent="1">
          <mxGeometry x="-640" y="400" width="100" height="40" as="geometry" />
        </mxCell>
        <mxCell id="Kmo-SIVVVGikCY21M4dk-131" value="ISBN" style="ellipse;whiteSpace=wrap;html=1;align=center;" vertex="1" parent="1">
          <mxGeometry x="-640" y="520" width="100" height="40" as="geometry" />
        </mxCell>
        <mxCell id="Kmo-SIVVVGikCY21M4dk-132" value="" style="endArrow=none;html=1;rounded=0;entryX=0;entryY=0;entryDx=0;entryDy=0;exitX=1;exitY=0.5;exitDx=0;exitDy=0;" edge="1" parent="1" source="Kmo-SIVVVGikCY21M4dk-130" target="Kmo-SIVVVGikCY21M4dk-20">
          <mxGeometry width="50" height="50" relative="1" as="geometry">
            <mxPoint x="-570" y="470" as="sourcePoint" />
            <mxPoint x="-520" y="420" as="targetPoint" />
          </mxGeometry>
        </mxCell>
        <mxCell id="Kmo-SIVVVGikCY21M4dk-133" value="" style="endArrow=none;html=1;rounded=0;entryX=0;entryY=0.25;entryDx=0;entryDy=0;exitX=1;exitY=0.5;exitDx=0;exitDy=0;" edge="1" parent="1" source="Kmo-SIVVVGikCY21M4dk-128" target="Kmo-SIVVVGikCY21M4dk-20">
          <mxGeometry width="50" height="50" relative="1" as="geometry">
            <mxPoint x="-540" y="590" as="sourcePoint" />
            <mxPoint x="-490" y="540" as="targetPoint" />
          </mxGeometry>
        </mxCell>
        <mxCell id="Kmo-SIVVVGikCY21M4dk-134" value="" style="endArrow=none;html=1;rounded=0;entryX=0;entryY=1;entryDx=0;entryDy=0;exitX=1;exitY=0.5;exitDx=0;exitDy=0;" edge="1" parent="1" source="Kmo-SIVVVGikCY21M4dk-131" target="Kmo-SIVVVGikCY21M4dk-20">
          <mxGeometry width="50" height="50" relative="1" as="geometry">
            <mxPoint x="-570" y="550" as="sourcePoint" />
            <mxPoint x="-520" y="500" as="targetPoint" />
          </mxGeometry>
        </mxCell>
        <mxCell id="Kmo-SIVVVGikCY21M4dk-135" value="" style="endArrow=none;html=1;rounded=0;exitX=1;exitY=0.5;exitDx=0;exitDy=0;entryX=0;entryY=0.75;entryDx=0;entryDy=0;" edge="1" parent="1" source="Kmo-SIVVVGikCY21M4dk-129" target="Kmo-SIVVVGikCY21M4dk-20">
          <mxGeometry width="50" height="50" relative="1" as="geometry">
            <mxPoint x="-550" y="550" as="sourcePoint" />
            <mxPoint x="-500" y="500" as="targetPoint" />
          </mxGeometry>
        </mxCell>
        <mxCell id="Kmo-SIVVVGikCY21M4dk-142" value="Livro &quot;B&quot;" style="whiteSpace=wrap;html=1;align=center;" vertex="1" parent="1">
          <mxGeometry x="-290" y="320" width="100" height="40" as="geometry" />
        </mxCell>
        <mxCell id="Kmo-SIVVVGikCY21M4dk-143" value="Autor" style="ellipse;whiteSpace=wrap;html=1;align=center;" vertex="1" parent="1">
          <mxGeometry x="-340" y="240" width="100" height="40" as="geometry" />
        </mxCell>
        <mxCell id="Kmo-SIVVVGikCY21M4dk-144" value="Categoria" style="ellipse;whiteSpace=wrap;html=1;align=center;" vertex="1" parent="1">
          <mxGeometry x="-240" y="240" width="100" height="40" as="geometry" />
        </mxCell>
        <mxCell id="Kmo-SIVVVGikCY21M4dk-145" value="Nome" style="ellipse;whiteSpace=wrap;html=1;align=center;" vertex="1" parent="1">
          <mxGeometry x="-400" y="280" width="100" height="40" as="geometry" />
        </mxCell>
        <mxCell id="Kmo-SIVVVGikCY21M4dk-146" value="ISBN" style="ellipse;whiteSpace=wrap;html=1;align=center;" vertex="1" parent="1">
          <mxGeometry x="-180" y="280" width="100" height="40" as="geometry" />
        </mxCell>
        <mxCell id="Kmo-SIVVVGikCY21M4dk-151" value="Livro &quot;C&quot;" style="whiteSpace=wrap;html=1;align=center;" vertex="1" parent="1">
          <mxGeometry x="-290" y="600" width="100" height="40" as="geometry" />
        </mxCell>
        <mxCell id="Kmo-SIVVVGikCY21M4dk-152" value="Autor" style="ellipse;whiteSpace=wrap;html=1;align=center;" vertex="1" parent="1">
          <mxGeometry x="-340" y="680" width="100" height="40" as="geometry" />
        </mxCell>
        <mxCell id="Kmo-SIVVVGikCY21M4dk-153" value="Categoria" style="ellipse;whiteSpace=wrap;html=1;align=center;" vertex="1" parent="1">
          <mxGeometry x="-236" y="680" width="100" height="40" as="geometry" />
        </mxCell>
        <mxCell id="Kmo-SIVVVGikCY21M4dk-154" value="Nome" style="ellipse;whiteSpace=wrap;html=1;align=center;" vertex="1" parent="1">
          <mxGeometry x="-400" y="640" width="100" height="40" as="geometry" />
        </mxCell>
        <mxCell id="Kmo-SIVVVGikCY21M4dk-155" value="ISBN" style="ellipse;whiteSpace=wrap;html=1;align=center;" vertex="1" parent="1">
          <mxGeometry x="-180" y="640" width="100" height="40" as="geometry" />
        </mxCell>
        <mxCell id="Kmo-SIVVVGikCY21M4dk-160" value="" style="endArrow=none;html=1;rounded=0;entryX=1;entryY=0.5;entryDx=0;entryDy=0;exitX=0;exitY=0;exitDx=0;exitDy=0;" edge="1" parent="1" source="Kmo-SIVVVGikCY21M4dk-142" target="Kmo-SIVVVGikCY21M4dk-145">
          <mxGeometry width="50" height="50" relative="1" as="geometry">
            <mxPoint x="-340" y="360" as="sourcePoint" />
            <mxPoint x="-290" y="310" as="targetPoint" />
          </mxGeometry>
        </mxCell>
        <mxCell id="Kmo-SIVVVGikCY21M4dk-161" value="" style="endArrow=none;html=1;rounded=0;entryX=0;entryY=0.5;entryDx=0;entryDy=0;exitX=1;exitY=0;exitDx=0;exitDy=0;" edge="1" parent="1" source="Kmo-SIVVVGikCY21M4dk-142" target="Kmo-SIVVVGikCY21M4dk-146">
          <mxGeometry width="50" height="50" relative="1" as="geometry">
            <mxPoint x="-170" y="370" as="sourcePoint" />
            <mxPoint x="-120" y="320" as="targetPoint" />
          </mxGeometry>
        </mxCell>
        <mxCell id="Kmo-SIVVVGikCY21M4dk-164" value="" style="endArrow=none;html=1;rounded=0;entryX=1;entryY=1;entryDx=0;entryDy=0;exitX=0.5;exitY=0;exitDx=0;exitDy=0;" edge="1" parent="1" source="Kmo-SIVVVGikCY21M4dk-142" target="Kmo-SIVVVGikCY21M4dk-143">
          <mxGeometry width="50" height="50" relative="1" as="geometry">
            <mxPoint x="-240" y="300" as="sourcePoint" />
            <mxPoint x="-230" y="300" as="targetPoint" />
          </mxGeometry>
        </mxCell>
        <mxCell id="Kmo-SIVVVGikCY21M4dk-165" value="" style="endArrow=none;html=1;rounded=0;exitX=0.5;exitY=0;exitDx=0;exitDy=0;entryX=0;entryY=1;entryDx=0;entryDy=0;" edge="1" parent="1" source="Kmo-SIVVVGikCY21M4dk-142" target="Kmo-SIVVVGikCY21M4dk-144">
          <mxGeometry width="50" height="50" relative="1" as="geometry">
            <mxPoint x="-230" y="340" as="sourcePoint" />
            <mxPoint x="-220" y="290" as="targetPoint" />
          </mxGeometry>
        </mxCell>
        <mxCell id="Kmo-SIVVVGikCY21M4dk-166" value="" style="endArrow=none;html=1;rounded=0;exitX=1;exitY=0;exitDx=0;exitDy=0;entryX=0.5;entryY=1;entryDx=0;entryDy=0;" edge="1" parent="1" source="Kmo-SIVVVGikCY21M4dk-152" target="Kmo-SIVVVGikCY21M4dk-151">
          <mxGeometry width="50" height="50" relative="1" as="geometry">
            <mxPoint x="-250" y="700" as="sourcePoint" />
            <mxPoint x="-200" y="650" as="targetPoint" />
          </mxGeometry>
        </mxCell>
        <mxCell id="Kmo-SIVVVGikCY21M4dk-167" value="" style="endArrow=none;html=1;rounded=0;entryX=0;entryY=0;entryDx=0;entryDy=0;" edge="1" parent="1" source="Kmo-SIVVVGikCY21M4dk-151" target="Kmo-SIVVVGikCY21M4dk-153">
          <mxGeometry width="50" height="50" relative="1" as="geometry">
            <mxPoint x="-240" y="760" as="sourcePoint" />
            <mxPoint x="-190" y="710" as="targetPoint" />
          </mxGeometry>
        </mxCell>
        <mxCell id="Kmo-SIVVVGikCY21M4dk-168" value="" style="endArrow=none;html=1;rounded=0;exitX=1;exitY=1;exitDx=0;exitDy=0;entryX=0;entryY=0.5;entryDx=0;entryDy=0;" edge="1" parent="1" source="Kmo-SIVVVGikCY21M4dk-151" target="Kmo-SIVVVGikCY21M4dk-155">
          <mxGeometry width="50" height="50" relative="1" as="geometry">
            <mxPoint x="-190" y="670" as="sourcePoint" />
            <mxPoint x="-140" y="620" as="targetPoint" />
          </mxGeometry>
        </mxCell>
        <mxCell id="Kmo-SIVVVGikCY21M4dk-169" value="" style="endArrow=none;html=1;rounded=0;entryX=0;entryY=1;entryDx=0;entryDy=0;exitX=1;exitY=0.5;exitDx=0;exitDy=0;" edge="1" parent="1" source="Kmo-SIVVVGikCY21M4dk-154" target="Kmo-SIVVVGikCY21M4dk-151">
          <mxGeometry width="50" height="50" relative="1" as="geometry">
            <mxPoint x="-310" y="700" as="sourcePoint" />
            <mxPoint x="-260" y="650" as="targetPoint" />
          </mxGeometry>
        </mxCell>
        <mxCell id="Kmo-SIVVVGikCY21M4dk-170" value="Biblioteca" style="rounded=1;arcSize=10;whiteSpace=wrap;html=1;align=center;" vertex="1" parent="1">
          <mxGeometry x="-320" y="440" width="160" height="80" as="geometry" />
        </mxCell>
        <mxCell id="Kmo-SIVVVGikCY21M4dk-188" value="UsuÃ¡rio &quot;X&quot;" style="whiteSpace=wrap;html=1;align=center;" vertex="1" parent="1">
          <mxGeometry x="400" y="460" width="100" height="40" as="geometry" />
        </mxCell>
        <mxCell id="Kmo-SIVVVGikCY21M4dk-189" value="Email" style="ellipse;whiteSpace=wrap;html=1;align=center;" vertex="1" parent="1">
          <mxGeometry x="540" y="460" width="100" height="40" as="geometry" />
        </mxCell>
        <mxCell id="Kmo-SIVVVGikCY21M4dk-190" value="Senha" style="ellipse;whiteSpace=wrap;html=1;align=center;" vertex="1" parent="1">
          <mxGeometry x="440" y="540" width="100" height="40" as="geometry" />
        </mxCell>
        <mxCell id="Kmo-SIVVVGikCY21M4dk-191" value="Nome" style="ellipse;whiteSpace=wrap;html=1;align=center;" vertex="1" parent="1">
          <mxGeometry x="440" y="380" width="100" height="40" as="geometry" />
        </mxCell>
        <mxCell id="Kmo-SIVVVGikCY21M4dk-195" value="UsuÃ¡rio &quot;Y&quot;" style="whiteSpace=wrap;html=1;align=center;" vertex="1" parent="1">
          <mxGeometry x="190" y="320" width="100" height="40" as="geometry" />
        </mxCell>
        <mxCell id="Kmo-SIVVVGikCY21M4dk-196" value="Email" style="ellipse;whiteSpace=wrap;html=1;align=center;" vertex="1" parent="1">
          <mxGeometry x="190" y="240" width="100" height="40" as="geometry" />
        </mxCell>
        <mxCell id="Kmo-SIVVVGikCY21M4dk-197" value="Senha" style="ellipse;whiteSpace=wrap;html=1;align=center;" vertex="1" parent="1">
          <mxGeometry x="310" y="280" width="100" height="40" as="geometry" />
        </mxCell>
        <mxCell id="Kmo-SIVVVGikCY21M4dk-198" value="Nome" style="ellipse;whiteSpace=wrap;html=1;align=center;" vertex="1" parent="1">
          <mxGeometry x="70" y="280" width="100" height="40" as="geometry" />
        </mxCell>
        <mxCell id="Kmo-SIVVVGikCY21M4dk-199" value="UsuÃ¡rio &quot;Z&quot;" style="whiteSpace=wrap;html=1;align=center;" vertex="1" parent="1">
          <mxGeometry x="190" y="600" width="100" height="40" as="geometry" />
        </mxCell>
        <mxCell id="Kmo-SIVVVGikCY21M4dk-200" value="Email" style="ellipse;whiteSpace=wrap;html=1;align=center;" vertex="1" parent="1">
          <mxGeometry x="190" y="670" width="100" height="40" as="geometry" />
        </mxCell>
        <mxCell id="Kmo-SIVVVGikCY21M4dk-201" value="Senha" style="ellipse;whiteSpace=wrap;html=1;align=center;" vertex="1" parent="1">
          <mxGeometry x="320" y="640" width="100" height="40" as="geometry" />
        </mxCell>
        <mxCell id="Kmo-SIVVVGikCY21M4dk-202" value="Nome" style="ellipse;whiteSpace=wrap;html=1;align=center;" vertex="1" parent="1">
          <mxGeometry x="70" y="640" width="100" height="40" as="geometry" />
        </mxCell>
        <mxCell id="Kmo-SIVVVGikCY21M4dk-203" value="" style="endArrow=none;html=1;rounded=0;entryX=1;entryY=0.5;entryDx=0;entryDy=0;exitX=0;exitY=0.5;exitDx=0;exitDy=0;" edge="1" parent="1" source="Kmo-SIVVVGikCY21M4dk-189" target="Kmo-SIVVVGikCY21M4dk-188">
          <mxGeometry width="50" height="50" relative="1" as="geometry">
            <mxPoint x="540" y="570" as="sourcePoint" />
            <mxPoint x="590" y="520" as="targetPoint" />
          </mxGeometry>
        </mxCell>
        <mxCell id="Kmo-SIVVVGikCY21M4dk-204" value="" style="endArrow=none;html=1;rounded=0;entryX=0.5;entryY=1;entryDx=0;entryDy=0;exitX=0.5;exitY=0;exitDx=0;exitDy=0;" edge="1" parent="1" source="Kmo-SIVVVGikCY21M4dk-190" target="Kmo-SIVVVGikCY21M4dk-188">
          <mxGeometry width="50" height="50" relative="1" as="geometry">
            <mxPoint x="520" y="570" as="sourcePoint" />
            <mxPoint x="570" y="520" as="targetPoint" />
          </mxGeometry>
        </mxCell>
        <mxCell id="Kmo-SIVVVGikCY21M4dk-205" value="" style="endArrow=none;html=1;rounded=0;exitX=0.5;exitY=0;exitDx=0;exitDy=0;entryX=0.5;entryY=1;entryDx=0;entryDy=0;" edge="1" parent="1" source="Kmo-SIVVVGikCY21M4dk-188" target="Kmo-SIVVVGikCY21M4dk-191">
          <mxGeometry width="50" height="50" relative="1" as="geometry">
            <mxPoint x="470" y="450" as="sourcePoint" />
            <mxPoint x="520" y="400" as="targetPoint" />
          </mxGeometry>
        </mxCell>
        <mxCell id="Kmo-SIVVVGikCY21M4dk-206" value="" style="endArrow=none;html=1;rounded=0;exitX=1;exitY=0.5;exitDx=0;exitDy=0;entryX=0;entryY=0.5;entryDx=0;entryDy=0;" edge="1" parent="1" source="Kmo-SIVVVGikCY21M4dk-198" target="Kmo-SIVVVGikCY21M4dk-195">
          <mxGeometry width="50" height="50" relative="1" as="geometry">
            <mxPoint x="160" y="390" as="sourcePoint" />
            <mxPoint x="210" y="340" as="targetPoint" />
          </mxGeometry>
        </mxCell>
        <mxCell id="Kmo-SIVVVGikCY21M4dk-207" value="" style="endArrow=none;html=1;rounded=0;exitX=0.5;exitY=0;exitDx=0;exitDy=0;entryX=0.5;entryY=1;entryDx=0;entryDy=0;" edge="1" parent="1" source="Kmo-SIVVVGikCY21M4dk-195" target="Kmo-SIVVVGikCY21M4dk-196">
          <mxGeometry width="50" height="50" relative="1" as="geometry">
            <mxPoint x="140" y="320" as="sourcePoint" />
            <mxPoint x="190" y="270" as="targetPoint" />
          </mxGeometry>
        </mxCell>
        <mxCell id="Kmo-SIVVVGikCY21M4dk-208" value="" style="endArrow=none;html=1;rounded=0;exitX=1;exitY=0.5;exitDx=0;exitDy=0;entryX=0;entryY=0.5;entryDx=0;entryDy=0;" edge="1" parent="1" source="Kmo-SIVVVGikCY21M4dk-195" target="Kmo-SIVVVGikCY21M4dk-197">
          <mxGeometry width="50" height="50" relative="1" as="geometry">
            <mxPoint x="310" y="330" as="sourcePoint" />
            <mxPoint x="360" y="280" as="targetPoint" />
          </mxGeometry>
        </mxCell>
        <mxCell id="Kmo-SIVVVGikCY21M4dk-209" value="" style="endArrow=none;html=1;rounded=0;exitX=1;exitY=0.5;exitDx=0;exitDy=0;entryX=0;entryY=0.5;entryDx=0;entryDy=0;" edge="1" parent="1" source="Kmo-SIVVVGikCY21M4dk-202" target="Kmo-SIVVVGikCY21M4dk-199">
          <mxGeometry width="50" height="50" relative="1" as="geometry">
            <mxPoint x="190" y="620" as="sourcePoint" />
            <mxPoint x="240" y="570" as="targetPoint" />
          </mxGeometry>
        </mxCell>
        <mxCell id="Kmo-SIVVVGikCY21M4dk-210" value="" style="endArrow=none;html=1;rounded=0;exitX=1;exitY=0.5;exitDx=0;exitDy=0;entryX=0;entryY=0.5;entryDx=0;entryDy=0;" edge="1" parent="1" source="Kmo-SIVVVGikCY21M4dk-199" target="Kmo-SIVVVGikCY21M4dk-201">
          <mxGeometry width="50" height="50" relative="1" as="geometry">
            <mxPoint x="300" y="640" as="sourcePoint" />
            <mxPoint x="350" y="590" as="targetPoint" />
          </mxGeometry>
        </mxCell>
        <mxCell id="Kmo-SIVVVGikCY21M4dk-211" value="" style="endArrow=none;html=1;rounded=0;exitX=0.5;exitY=0;exitDx=0;exitDy=0;entryX=0.5;entryY=1;entryDx=0;entryDy=0;" edge="1" parent="1" source="Kmo-SIVVVGikCY21M4dk-200" target="Kmo-SIVVVGikCY21M4dk-199">
          <mxGeometry width="50" height="50" relative="1" as="geometry">
            <mxPoint x="260" y="690" as="sourcePoint" />
            <mxPoint x="310" y="640" as="targetPoint" />
          </mxGeometry>
        </mxCell>
        <mxCell id="Kmo-SIVVVGikCY21M4dk-214" value="SolicitaÃ§Ã£o de aluguel" style="shape=rhombus;perimeter=rhombusPerimeter;whiteSpace=wrap;html=1;align=center;" vertex="1" parent="1">
          <mxGeometry x="-70" y="440" width="140" height="80" as="geometry" />
        </mxCell>
        <mxCell id="Kmo-SIVVVGikCY21M4dk-217" value="Base de usuÃ¡rios" style="rounded=1;arcSize=10;whiteSpace=wrap;html=1;align=center;" vertex="1" parent="1">
          <mxGeometry x="160" y="440" width="160" height="80" as="geometry" />
        </mxCell>
        <mxCell id="Kmo-SIVVVGikCY21M4dk-219" value="" style="endArrow=none;html=1;rounded=0;exitX=1;exitY=0.5;exitDx=0;exitDy=0;entryX=0;entryY=0.5;entryDx=0;entryDy=0;" edge="1" parent="1" source="Kmo-SIVVVGikCY21M4dk-20" target="Kmo-SIVVVGikCY21M4dk-170">
          <mxGeometry width="50" height="50" relative="1" as="geometry">
            <mxPoint x="-400" y="510" as="sourcePoint" />
            <mxPoint x="-350" y="460" as="targetPoint" />
          </mxGeometry>
        </mxCell>
        <mxCell id="Kmo-SIVVVGikCY21M4dk-220" value="" style="endArrow=none;html=1;rounded=0;entryX=0.5;entryY=1;entryDx=0;entryDy=0;exitX=0.5;exitY=0;exitDx=0;exitDy=0;" edge="1" parent="1" source="Kmo-SIVVVGikCY21M4dk-170" target="Kmo-SIVVVGikCY21M4dk-142">
          <mxGeometry width="50" height="50" relative="1" as="geometry">
            <mxPoint x="-270" y="390" as="sourcePoint" />
            <mxPoint x="-220" y="340" as="targetPoint" />
          </mxGeometry>
        </mxCell>
        <mxCell id="Kmo-SIVVVGikCY21M4dk-221" value="" style="endArrow=none;html=1;rounded=0;entryX=0.5;entryY=1;entryDx=0;entryDy=0;exitX=0.5;exitY=0;exitDx=0;exitDy=0;" edge="1" parent="1" source="Kmo-SIVVVGikCY21M4dk-151" target="Kmo-SIVVVGikCY21M4dk-170">
          <mxGeometry width="50" height="50" relative="1" as="geometry">
            <mxPoint x="-290" y="590" as="sourcePoint" />
            <mxPoint x="-240" y="540" as="targetPoint" />
          </mxGeometry>
        </mxCell>
        <mxCell id="Kmo-SIVVVGikCY21M4dk-227" value="" style="curved=1;endArrow=classic;html=1;rounded=0;dashed=1;entryX=1;entryY=1;entryDx=0;entryDy=0;exitX=0;exitY=0.5;exitDx=0;exitDy=0;" edge="1" parent="1" source="Kmo-SIVVVGikCY21M4dk-229" target="Kmo-SIVVVGikCY21M4dk-142">
          <mxGeometry width="50" height="50" relative="1" as="geometry">
            <mxPoint x="-110" y="590" as="sourcePoint" />
            <mxPoint x="-60" y="540" as="targetPoint" />
            <Array as="points">
              <mxPoint x="-60" y="590" />
              <mxPoint x="-130" y="540" />
              <mxPoint x="-150" y="430" />
            </Array>
          </mxGeometry>
        </mxCell>
        <mxCell id="Kmo-SIVVVGikCY21M4dk-228" value="" style="curved=1;endArrow=classic;html=1;rounded=0;dashed=1;entryX=1;entryY=0;entryDx=0;entryDy=0;exitX=0;exitY=0.5;exitDx=0;exitDy=0;" edge="1" parent="1" source="Kmo-SIVVVGikCY21M4dk-229" target="Kmo-SIVVVGikCY21M4dk-151">
          <mxGeometry width="50" height="50" relative="1" as="geometry">
            <mxPoint x="-570" y="790" as="sourcePoint" />
            <mxPoint x="-510" y="730" as="targetPoint" />
            <Array as="points">
              <mxPoint x="-120" y="590" />
              <mxPoint x="-140" y="600" />
            </Array>
          </mxGeometry>
        </mxCell>
        <mxCell id="Kmo-SIVVVGikCY21M4dk-229" value="Livro solicitado" style="ellipse;whiteSpace=wrap;html=1;align=center;" vertex="1" parent="1">
          <mxGeometry x="-100" y="560" width="100" height="40" as="geometry" />
        </mxCell>
        <mxCell id="Kmo-SIVVVGikCY21M4dk-230" value="" style="curved=1;endArrow=classic;html=1;rounded=0;dashed=1;entryX=1;entryY=0.5;entryDx=0;entryDy=0;exitX=0;exitY=0.5;exitDx=0;exitDy=0;" edge="1" parent="1" source="Kmo-SIVVVGikCY21M4dk-229" target="Kmo-SIVVVGikCY21M4dk-20">
          <mxGeometry width="50" height="50" relative="1" as="geometry">
            <mxPoint x="-70" y="530" as="sourcePoint" />
            <mxPoint x="-60" y="380" as="targetPoint" />
            <Array as="points">
              <mxPoint x="-70" y="600" />
            </Array>
          </mxGeometry>
        </mxCell>
        <mxCell id="Kmo-SIVVVGikCY21M4dk-231" value="" style="endArrow=none;html=1;rounded=0;entryX=0.5;entryY=1;entryDx=0;entryDy=0;exitX=0.5;exitY=0;exitDx=0;exitDy=0;" edge="1" parent="1" source="Kmo-SIVVVGikCY21M4dk-229" target="Kmo-SIVVVGikCY21M4dk-214">
          <mxGeometry width="50" height="50" relative="1" as="geometry">
            <mxPoint x="80" y="560" as="sourcePoint" />
            <mxPoint x="130" y="510" as="targetPoint" />
          </mxGeometry>
        </mxCell>
        <mxCell id="Kmo-SIVVVGikCY21M4dk-232" value="Data de emprÃ©stimo" style="ellipse;whiteSpace=wrap;html=1;align=center;" vertex="1" parent="1">
          <mxGeometry y="360" width="100" height="40" as="geometry" />
        </mxCell>
        <mxCell id="Kmo-SIVVVGikCY21M4dk-233" value="Data de devoluÃ§Ã£o" style="ellipse;whiteSpace=wrap;html=1;align=center;" vertex="1" parent="1">
          <mxGeometry x="-100" y="360" width="100" height="40" as="geometry" />
        </mxCell>
        <mxCell id="Kmo-SIVVVGikCY21M4dk-234" value="Solicitador" style="ellipse;whiteSpace=wrap;html=1;align=center;" vertex="1" parent="1">
          <mxGeometry y="560" width="100" height="40" as="geometry" />
        </mxCell>
        <mxCell id="Kmo-SIVVVGikCY21M4dk-235" value="" style="endArrow=none;html=1;rounded=0;entryX=0.5;entryY=1;entryDx=0;entryDy=0;exitX=0.5;exitY=0;exitDx=0;exitDy=0;" edge="1" parent="1" source="Kmo-SIVVVGikCY21M4dk-234" target="Kmo-SIVVVGikCY21M4dk-214">
          <mxGeometry width="50" height="50" relative="1" as="geometry">
            <mxPoint x="60" y="560" as="sourcePoint" />
            <mxPoint x="110" y="510" as="targetPoint" />
          </mxGeometry>
        </mxCell>
        <mxCell id="Kmo-SIVVVGikCY21M4dk-236" value="" style="endArrow=none;html=1;rounded=0;entryX=0.5;entryY=1;entryDx=0;entryDy=0;exitX=0.5;exitY=0;exitDx=0;exitDy=0;" edge="1" parent="1" source="Kmo-SIVVVGikCY21M4dk-214" target="Kmo-SIVVVGikCY21M4dk-233">
          <mxGeometry width="50" height="50" relative="1" as="geometry">
            <mxPoint x="-60" y="460" as="sourcePoint" />
            <mxPoint x="-10" y="410" as="targetPoint" />
          </mxGeometry>
        </mxCell>
        <mxCell id="Kmo-SIVVVGikCY21M4dk-237" value="" style="endArrow=none;html=1;rounded=0;entryX=0.5;entryY=1;entryDx=0;entryDy=0;exitX=0.5;exitY=0;exitDx=0;exitDy=0;" edge="1" parent="1" source="Kmo-SIVVVGikCY21M4dk-214" target="Kmo-SIVVVGikCY21M4dk-232">
          <mxGeometry width="50" height="50" relative="1" as="geometry">
            <mxPoint x="100" y="470" as="sourcePoint" />
            <mxPoint x="150" y="420" as="targetPoint" />
          </mxGeometry>
        </mxCell>
        <mxCell id="Kmo-SIVVVGikCY21M4dk-241" value="" style="endArrow=none;html=1;rounded=0;entryX=1;entryY=0.5;entryDx=0;entryDy=0;exitX=0;exitY=0.5;exitDx=0;exitDy=0;" edge="1" parent="1" source="Kmo-SIVVVGikCY21M4dk-214" target="Kmo-SIVVVGikCY21M4dk-170">
          <mxGeometry width="50" height="50" relative="1" as="geometry">
            <mxPoint x="-150" y="540" as="sourcePoint" />
            <mxPoint x="-100" y="490" as="targetPoint" />
          </mxGeometry>
        </mxCell>
        <mxCell id="Kmo-SIVVVGikCY21M4dk-242" value="" style="endArrow=none;html=1;rounded=0;exitX=1;exitY=0.5;exitDx=0;exitDy=0;entryX=0;entryY=0.5;entryDx=0;entryDy=0;" edge="1" parent="1" source="Kmo-SIVVVGikCY21M4dk-214" target="Kmo-SIVVVGikCY21M4dk-217">
          <mxGeometry width="50" height="50" relative="1" as="geometry">
            <mxPoint x="110" y="490" as="sourcePoint" />
            <mxPoint x="160" y="440" as="targetPoint" />
          </mxGeometry>
        </mxCell>
        <mxCell id="Kmo-SIVVVGikCY21M4dk-244" value="" style="curved=1;endArrow=classic;html=1;rounded=0;dashed=1;entryX=0;entryY=1;entryDx=0;entryDy=0;exitX=1;exitY=0.5;exitDx=0;exitDy=0;" edge="1" parent="1" source="Kmo-SIVVVGikCY21M4dk-234" target="Kmo-SIVVVGikCY21M4dk-195">
          <mxGeometry width="50" height="50" relative="1" as="geometry">
            <mxPoint x="140" y="600" as="sourcePoint" />
            <mxPoint x="230" y="380" as="targetPoint" />
            <Array as="points">
              <mxPoint x="100" y="540" />
              <mxPoint x="110" y="470" />
              <mxPoint x="130" y="410" />
            </Array>
          </mxGeometry>
        </mxCell>
        <mxCell id="Kmo-SIVVVGikCY21M4dk-245" value="" style="curved=1;endArrow=classic;html=1;rounded=0;dashed=1;entryX=0;entryY=0;entryDx=0;entryDy=0;exitX=1;exitY=0.5;exitDx=0;exitDy=0;" edge="1" parent="1" source="Kmo-SIVVVGikCY21M4dk-234" target="Kmo-SIVVVGikCY21M4dk-199">
          <mxGeometry width="50" height="50" relative="1" as="geometry">
            <mxPoint x="100" y="580" as="sourcePoint" />
            <mxPoint x="190" y="600" as="targetPoint" />
            <Array as="points">
              <mxPoint x="120" y="590" />
              <mxPoint x="140" y="600" />
            </Array>
          </mxGeometry>
        </mxCell>
        <mxCell id="Kmo-SIVVVGikCY21M4dk-246" value="" style="curved=1;endArrow=classic;html=1;rounded=0;dashed=1;entryX=0;entryY=1;entryDx=0;entryDy=0;exitX=1;exitY=0.5;exitDx=0;exitDy=0;" edge="1" parent="1" source="Kmo-SIVVVGikCY21M4dk-234" target="Kmo-SIVVVGikCY21M4dk-188">
          <mxGeometry width="50" height="50" relative="1" as="geometry">
            <mxPoint x="120" y="610" as="sourcePoint" />
            <mxPoint x="400" y="480" as="targetPoint" />
            <Array as="points">
              <mxPoint x="80" y="610" />
              <mxPoint x="260" y="560" />
            </Array>
          </mxGeometry>
        </mxCell>
      </root>
    </mxGraphModel>
  </diagram>
</mxfile>
